<svg width="64px" height="64px" viewBox="0 0 64 64" data-name="Layer 1" id="Layer_1" xmlns="http://www.w3.org/2000/svg"><path d="M45,50.15H17.63a11.56,11.56,0,0,1-2.41-22.86,16.11,16.11,0,0,1,31-3A12.94,12.94,0,0,1,45,50.15ZM31.11,17.85A12.13,12.13,0,0,0,19,29.19a2,2,0,0,1-1.88,1.87,7.55,7.55,0,0,0,.48,15.09H45a8.94,8.94,0,0,0,0-17.88h-.26a2,2,0,0,1-1.93-1.48A12.15,12.15,0,0,0,31.11,17.85Z"/><path d="M32,40.5a2,2,0,0,1-1.26-.44L25.3,35.63a2,2,0,0,1,2.52-3.1L30,34.3V28.66a2,2,0,1,1,4,0V38.5a2,2,0,0,1-2,2Z"/><path d="M32,40.5a2,2,0,0,1-2-2V28.66a2,2,0,1,1,4,0V34.3l2.18-1.77a2,2,0,1,1,2.52,3.1l-5.44,4.43A2,2,0,0,1,32,40.5Z"/></svg>